<svg version="1" xmlns="http://www.w3.org/2000/svg" width="682.667" height="682.667" viewBox="0 0 512.000000 512.000000"><path d="M104 77.7c3.1 8.7 8.3 23 11.4 31.8 8.4 23.4 10.6 29.4 12.6 35 1.1 2.7 5.4 14.7 9.6 26.5 11.3 31.7 11.9 33.5 16.4 46 2.3 6.3 6.3 17.6 9 25 13.6 38.2 38.2 106.8 38.9 108.5.5 1.1 3.2 8.5 6 16.5 2.9 8 8 22.4 11.5 32l6.3 17.5 30 .3 30.1.2 2-5.7c1.1-3.2 4.1-11.7 6.7-18.8 2.6-7.2 6.4-17.7 8.5-23.5 3-8.5 29-80.6 49-136 2.1-5.8 9.1-25.1 15.5-43s13.3-36.8 15.2-42c1.9-5.2 3.6-10 3.7-10.5.2-.6.6-1.7.9-2.5.3-.8 3.8-10.5 7.7-21.5 3.9-11 7.5-20.9 8-22 1.7-3.8 10-27.6 10-28.5 0-.6-12.7-1-33.5-1H346l-1 2.2c-.5 1.3-6.4 19.2-13 39.8-6.7 20.6-13 40-14 43s-4.3 13.1-7.3 22.5c-3 9.3-8.4 26-12 37-3.6 11-12 36.9-18.7 57.5-6.7 20.6-15 46-18.4 56.5l-6.3 19-2.2-7c-1.2-3.9-6.3-19.6-11.3-35-4.9-15.4-10.8-33.6-13-40.5-2.2-6.9-6.8-21.3-10.3-32-3.5-10.7-9.8-30.3-14-43.5-4.2-13.2-10.1-31.4-13-40.5-3-9.1-9.3-28.7-14-43.5-4.8-14.9-9.3-28.8-10-31l-1.3-4-34-.3-34-.2 5.8 15.7zM52.8 96.1c-7.1 1.1-9.5 5.1-9.7 16.6-.4 15.1 3.1 18.3 19.8 18.3 9.8 0 10.1.1 10.2 2.2.1 3.4.1 12.5 0 19.4l-.1 6.1H58.3c-8.2 0-16.6.3-18.8.7-8.7 1.7-15.7 7.4-19.7 16.1l-2.2 5-.2 80.4c-.2 44.1-.4 80.4-.6 80.6-.2.2-2.5.6-5.1.8-5.7.7-9.4 2.8-10.7 6.3-1.3 3.4-1.3 20.4.1 24.2 1.8 5.2 4.9 6.4 16.8 6.6 12.6.2 15.9-.5 18.8-4.1 1.8-2.2 2.3-4.1 2.3-8.6V361h36.5l.1 2.8c.5 13.7 6.4 26.6 17.1 36.9 6.7 6.5 17.5 12.6 24.3 13.8 1.9.3 4.3.8 5.3 1.1 3.3 1 15.4.7 20.8-.6 23.4-5.5 42.3-27.5 43.1-50.3l.1-3.7h8.4c4.5 0 8.3-.4 8.3-.9 0-2.2-71.3-199.7-72.4-200.6-.8-.6-7.2-.9-15.5-.8l-14.1.2V131h10.1c7.7 0 10-.3 9.6-1.3-.2-.6-3-8.4-6.2-17.2-3.1-8.8-5.9-16.2-6.2-16.5-.6-.7-51.2-.6-55.5.1z"/><path d="M179.5 96.1c-.2.3 2.1 8.3 5.2 17.7l5.6 17.2h17.4V158.7h-4.1c-2.3 0-4 .3-4 .9.3 2.2 55.9 174.3 56.1 173.6.1-.4 12.8-39.6 28.3-87.1 15.4-47.5 27.8-86.6 27.5-86.9-.3-.3-17.5-.5-38.3-.5h-37.8l.2-12.6c.1-6.9.2-13.2.3-13.9.1-.9 9.4-1.2 42.9-1.2l42.7-.1 5.4-16.7c2.9-9.2 5.2-17.1 5-17.7-.4-1-151.8-1.5-152.4-.4zM397.2 139c-.9 1.1-2.9 5.9-4.3 10.7l-2.6 8.8-4.4.3c-2.4.2-4.6.5-4.9.8-.3.3-16.8 45.6-36.6 100.7l-36.1 100.2 8.9.3c6.9.2 8.9.6 8.5 1.6-.9 2.3 2.4 15.9 5.4 22.2 7.2 15.3 21.9 27 38.4 30.4 32.3 6.8 62.7-15.4 66.9-48.8.3-2.4.7-4.6 1-5 .2-.4 7.3-.6 15.8-.4l15.3.3.2 6c.1 4.8.6 6.6 2.3 8.4 3.3 3.6 6.3 4.1 20.5 4 19.2-.3 21-2.1 20.3-21.3-.3-9.3-.5-10.4-2.8-12.6-1.8-1.9-3.9-2.7-7.9-3.1-3-.3-5.6-.7-5.8-.9-.3-.2-.5-36.6-.7-80.7l-.2-80.4-2.2-5c-2.7-5.9-6.2-9.8-11.7-13-5.3-3.1-9.8-3.8-23.1-3.8l-11.1.1-2.8-9.5c-1.8-6.2-3.5-9.9-4.9-10.9-1.6-1.1-6.1-1.4-20.8-1.4-17.6 0-18.9.1-20.6 2z"/></svg>